<?xml version="1.0" encoding="UTF-8"?>
<svg width="20px" height="20px" viewBox="0 0 20 20" version="1.1" xmlns="http://www.w3.org/2000/svg" xmlns:xlink="http://www.w3.org/1999/xlink">
    <title>41AB45CA-045F-4B6F-991D-64BA52D229A9</title>
    <g id="Page-1" stroke="none" stroke-width="1" fill="none" fill-rule="evenodd">
        <g id="Home2" transform="translate(-861.000000, -4419.000000)" fill="#021A37" fill-rule="nonzero">
            <path d="M863.401243,4423.8248 C864.72685,4423.8248 865.802486,4422.72685 865.802486,4421.40124 C865.802486,4420.07564 864.72685,4419 863.401243,4419 C862.075636,4419 861,4420.07564 861,4421.40124 C861,4422.72685 862.075636,4423.8248 863.401243,4423.8248 Z M872.216247,4438.99555 L872.216247,4432.38543 C872.216247,4430.64475 872.546549,4428.96208 874.702311,4428.96208 C876.756004,4428.96208 876.853663,4430.81804 876.857892,4432.34077 L876.858073,4438.99555 L881,4438.99555 L881,4431.66237 C881,4428.07387 880.227859,4425.31111 876.032363,4425.31111 C874.014946,4425.31111 872.662577,4426.418 872.109155,4427.46688 L872.051097,4427.46688 L872.051097,4425.64586 L868.07432,4425.64586 L868.07432,4438.99555 L872.216247,4438.99555 Z M865.476674,4438.99555 L865.476674,4425.64586 L861.330301,4425.64586 L861.330301,4438.99555 L865.476674,4438.99555 Z" id="ic_linkedIn"></path>
        </g>
    </g>
</svg>