<?xml version="1.0" encoding="UTF-8"?>
<svg width="25px" height="20px" viewBox="0 0 25 20" version="1.1" xmlns="http://www.w3.org/2000/svg" xmlns:xlink="http://www.w3.org/1999/xlink">
    <title>472BE5EA-1DB7-4C4D-87AC-7D0974BFCEE3</title>
    <g id="Page-1" stroke="none" stroke-width="1" fill="none" fill-rule="evenodd">
        <g id="Home2" transform="translate(-809.000000, -4419.000000)" fill="#021A37" fill-rule="nonzero">
            <path d="M816.868034,4439 C826.290706,4439 831.446146,4431.31247 831.446146,4424.64064 C831.446146,4424.42191 831.446146,4424.20308 831.430267,4423.98435 C832.429626,4423.26559 833.302146,4422.37497 834,4421.37501 C833.079987,4421.7656 832.080628,4422.0469 831.049511,4422.15624 C832.11229,4421.53128 832.921295,4420.54691 833.302051,4419.375 C832.318475,4419.95313 831.208108,4420.375 830.050152,4420.59374 C829.114165,4419.60937 827.781734,4419 826.306442,4419 C823.467008,4419 821.182711,4421.26562 821.182711,4424.04686 C821.182711,4424.4375 821.2303,4424.82809 821.309598,4425.20309 C817.058388,4424.98431 813.267089,4422.98434 810.744897,4419.92185 C810.300674,4420.67184 810.046948,4421.53123 810.046948,4422.46872 C810.046948,4424.21872 810.951082,4425.76558 812.331149,4426.67184 C811.490482,4426.64065 810.697261,4426.40628 810.01519,4426.03128 L810.01519,4426.09375 C810.01519,4428.54687 811.776013,4430.57807 814.12373,4431.04687 C813.695481,4431.15621 813.235427,4431.21872 812.77542,4431.21872 C812.442253,4431.21872 812.125012,4431.18749 811.807723,4431.14061 C812.458132,4433.14063 814.345842,4434.59374 816.598381,4434.64066 C814.837558,4436.00003 812.632559,4436.79689 810.237302,4436.79689 C809.809005,4436.79689 809.412466,4436.78125 809,4436.73443 C811.268418,4438.17185 813.965086,4439 816.868034,4439 Z" id="ic_twitter"></path>
        </g>
    </g>
</svg>