<?xml version="1.0" encoding="UTF-8"?>
<svg width="20px" height="20px" viewBox="0 0 20 20" version="1.1" xmlns="http://www.w3.org/2000/svg" xmlns:xlink="http://www.w3.org/1999/xlink">
    <title>C0DD9845-0E63-4760-A8E3-710D5BEF4D8F</title>
    <g id="Page-1" stroke="none" stroke-width="1" fill="none" fill-rule="evenodd">
        <g id="Home2" transform="translate(-907.000000, -4419.000000)" fill="#021A37" fill-rule="nonzero">
            <path d="M907,4438.375 L912.057418,4437.04725 C913.449577,4437.8078 915.017933,4438.2074 916.616375,4438.2074 L916.620697,4438.2074 C921.875754,4438.2074 926.249954,4433.92774 926.249954,4428.66836 C926.249954,4426.12033 925.167136,4423.72697 923.366775,4421.92228 C921.566372,4420.1176 919.168729,4419.12504 916.620697,4419.12504 C911.361318,4419.12504 907.081657,4423.4047 907.081657,4428.66408 C907.081657,4430.34414 907.519904,4431.98555 908.353512,4433.4336 L907,4438.375 Z M916.620697,4436.6004 C915.194129,4436.6004 913.797648,4436.21796 912.581644,4435.4961 L912.293746,4435.32422 L909.294543,4436.11054 L910.093743,4433.18439 L909.904664,4432.88361 C909.109744,4431.62032 908.692981,4430.1637 908.692981,4428.66408 C908.692981,4424.29416 912.250777,4420.73637 916.624977,4420.73637 C918.743323,4420.73637 920.732763,4421.56137 922.228105,4423.06095 C923.723406,4424.56058 924.64291,4426.55002 924.638645,4428.66836 C924.638645,4433.0426 920.990575,4436.6004 916.620697,4436.6004 Z M919.675751,4433.21448 C920.135524,4433.1457 921.085114,4432.63868 921.282795,4432.08009 C921.480434,4431.5215 921.480434,4431.04456 921.420261,4430.9457 C921.36441,4430.83828 921.205418,4430.77815 920.969091,4430.66212 L920.781621,4430.56843 C920.657609,4430.50702 920.494747,4430.42708 920.322576,4430.34352 L919.974574,4430.17597 C919.688817,4430.03967 919.431905,4429.92091 919.340604,4429.88869 C919.121439,4429.80703 918.962488,4429.76839 918.803496,4430.00899 C918.644503,4430.24964 918.189053,4430.78243 918.047223,4430.9457 C917.909756,4431.10469 917.767926,4431.12618 917.531599,4431.00587 C916.130838,4430.30549 915.211292,4429.7555 914.287466,4428.16994 C914.042578,4427.74886 914.532396,4427.77895 914.987888,4426.868 C915.065224,4426.70901 915.026535,4426.5715 914.966404,4426.4512 C914.934312,4426.38703 914.783674,4426.02343 914.620079,4425.62568 L914.496602,4425.32511 C914.394431,4425.0762 914.297509,4424.83987 914.231615,4424.68088 C914.038256,4424.21683 913.840617,4424.28128 913.694507,4424.27268 C913.556999,4424.26408 913.398048,4424.26408 913.239056,4424.26408 C913.080064,4424.26408 912.822252,4424.32425 912.603128,4424.56058 C912.383963,4424.80118 911.76952,4425.37698 911.76952,4426.55002 C911.76952,4427.72305 912.624613,4428.85744 912.740595,4429.01643 C912.86094,4429.17543 914.420694,4431.58167 916.814056,4432.6172 C918.326519,4433.27033 918.91952,4433.32618 919.675751,4433.21448 Z" id="ic_WhatsApp"></path>
        </g>
    </g>
</svg>