<?xml version="1.0" encoding="UTF-8"?>
<svg width="20px" height="20px" viewBox="0 0 20 20" version="1.1" xmlns="http://www.w3.org/2000/svg" xmlns:xlink="http://www.w3.org/1999/xlink">
    <title>B6C2D872-5CC4-4228-AFB9-F7C658F43841</title>
    <defs>
        <filter color-interpolation-filters="auto" id="filter-1">
            <feColorMatrix in="SourceGraphic" type="matrix" values="0 0 0 0 0.007843 0 0 0 0 0.101961 0 0 0 0 0.215686 0 0 0 1.000000 0"></feColorMatrix>
        </filter>
    </defs>
    <g id="Page-1" stroke="none" stroke-width="1" fill="none" fill-rule="evenodd">
        <g id="ic_instagram" transform="translate(-762.000000, -4419.000000)" filter="url(#filter-1)">
            <g transform="translate(762.044385, 4419.016732)">
                <path d="M14.1255802,0 L5.731235,0 C2.56324353,0 0,2.58226436 0,5.76129392 L0,14.2052426 C0,17.3898494 2.56879168,19.9665365 5.731235,19.9665365 L14.1255802,19.9665365 C17.2935716,19.9665365 19.8568241,17.3842722 19.8568241,14.2052426 L19.8568241,5.76687117 C19.8623633,2.58226436 17.2935716,0 14.1255802,0 Z M18.0314751,14.3558282 C18.0314751,16.469604 16.3281942,18.1818182 14.2254468,18.1818182 L5.63136836,18.1818182 C3.52862097,18.1818182 1.82534009,16.469604 1.82534009,14.3558282 L1.82534009,5.71667596 C1.82534009,3.60290017 3.52862097,1.890686 5.63136836,1.890686 L14.2254468,1.890686 C16.3281942,1.890686 18.0314751,3.60290017 18.0314751,5.71667596 L18.0314751,14.3558282 Z" id="XMLID_38_" fill="#011226" fill-rule="nonzero"></path>
                <path d="M9.93118165,4.85220301 C7.08498266,4.85220301 4.77695385,7.17233687 4.77695385,10.0334635 C4.77695385,12.8945901 7.08498266,15.2147239 9.93118165,15.2147239 C12.7773806,15.2147239 15.0854094,12.8945901 15.0854094,10.0334635 C15.0854094,7.17233687 12.7773806,4.85220301 9.93118165,4.85220301 Z M9.93118165,13.3909649 C8.08364897,13.3909649 6.59119765,11.8851088 6.59119765,10.0334635 C6.59119765,8.17624094 8.08919712,6.67596207 9.93118165,6.67596207 C11.7787143,6.67596207 13.2711656,8.18181818 13.2711656,10.0334635 C13.2711656,11.890686 11.7731662,13.3909649 9.93118165,13.3909649 Z" id="XMLID_41_" fill="#011226" fill-rule="nonzero"></path>
                <ellipse id="XMLID_42_" fill="#011226" fill-rule="nonzero" cx="15.257402" cy="4.65699944" rx="1.19839957" ry="1.20468489"></ellipse>
            </g>
        </g>
    </g>
</svg>